<svg version="1.1" xmlns="http://www.w3.org/2000/svg" viewBox="0 0 200.37890625 226.43359375" width="400.7578125" height="452.8671875">
  <!-- svg-source:excalidraw -->
  
  <defs>
    <style>
      @font-face {
        font-family: "Virgil";
        src: url("https://unpkg.com/@zsviczian/excalidraw@0.11.0-obsidian-18/dist/excalidraw-assets/Virgil.woff2");
      }
      @font-face {
        font-family: "Cascadia";
        src: url("https://unpkg.com/@zsviczian/excalidraw@0.11.0-obsidian-18/dist/excalidraw-assets/Cascadia.woff2");
      }
    </style>
  </defs>
  <g transform="translate(109.72265625 44.8828125) rotate(0 -39.7734375 37.638671875)" stroke="none"><path fill="#000000" d="M -1.90,0.53 Q -1.90,0.53 -2.68,-0.66 -3.46,-1.85 -3.67,-3.17 -3.87,-4.48 -4.34,-6.07 -4.80,-7.66 -5.86,-9.37 -6.93,-11.08 -8.74,-13.18 -10.56,-15.29 -12.92,-17.65 -15.28,-20.01 -17.80,-22.27 -20.32,-24.52 -22.71,-26.31 -25.09,-28.09 -27.73,-29.12 -30.37,-30.14 -32.64,-30.42 -34.91,-30.70 -37.31,-29.98 -39.72,-29.26 -43.80,-26.61 -47.88,-23.97 -51.65,-20.70 -55.41,-17.43 -58.80,-13.41 -62.18,-9.39 -65.21,-3.86 -68.24,1.66 -70.43,8.07 -72.63,14.49 -73.68,20.28 -74.73,26.08 -74.10,32.61 -73.48,39.14 -71.58,44.60 -69.68,50.06 -66.67,55.00 -63.66,59.94 -59.50,65.07 -55.34,70.19 -51.94,74.05 -48.55,77.91 -45.16,81.57 -41.78,85.23 -38.46,88.61 -35.15,91.99 -32.08,94.87 -29.02,97.74 -26.29,99.89 -23.56,102.05 -20.87,103.43 -18.19,104.82 -16.30,105.60 -14.41,106.38 -14.21,106.31 -14.01,106.23 -13.80,106.23 -13.59,106.22 -13.38,106.28 -13.18,106.34 -13.01,106.47 -12.83,106.59 -12.71,106.76 -12.58,106.93 -12.52,107.14 -12.46,107.34 -12.46,107.55 -12.47,107.76 -12.54,107.96 -12.61,108.16 -12.74,108.33 -12.88,108.50 -13.05,108.61 -13.23,108.73 -13.44,108.78 -13.64,108.83 -13.86,108.81 -14.07,108.80 -14.26,108.72 -14.46,108.63 -14.62,108.49 -14.78,108.35 -14.88,108.17 -14.99,107.98 -15.03,107.77 -15.07,107.57 -15.04,107.35 -15.02,107.14 -14.92,106.95 -14.83,106.76 -14.68,106.61 -14.53,106.46 -14.34,106.36 -14.15,106.27 -13.94,106.24 -13.73,106.21 -13.52,106.25 -13.31,106.29 -13.13,106.39 -12.94,106.49 -12.80,106.65 -12.65,106.81 -12.57,107.00 -12.48,107.20 -12.47,107.41 -12.45,107.62 -12.50,107.83 -12.55,108.03 -12.66,108.21 -12.78,108.39 -12.94,108.53 -13.10,108.66 -13.10,108.66 -13.10,108.66 -17.23,109.77 -21.35,110.89 -24.57,109.16 -27.79,107.43 -30.76,105.08 -33.72,102.73 -36.88,99.75 -40.04,96.77 -43.42,93.29 -46.80,89.82 -50.19,86.06 -53.58,82.31 -57.04,78.33 -60.50,74.35 -64.90,68.84 -69.30,63.34 -72.60,57.76 -75.89,52.18 -77.92,45.96 -79.95,39.73 -80.50,32.35 -81.04,24.97 -79.85,18.69 -78.66,12.40 -76.23,5.50 -73.80,-1.39 -70.42,-7.43 -67.04,-13.48 -63.29,-17.85 -59.55,-22.23 -55.40,-25.78 -51.24,-29.32 -46.30,-32.33 -41.35,-35.34 -37.76,-36.13 -34.17,-36.92 -31.06,-36.40 -27.96,-35.88 -24.73,-34.37 -21.51,-32.87 -18.94,-30.88 -16.37,-28.89 -13.76,-26.50 -11.16,-24.11 -8.65,-21.56 -6.14,-19.02 -4.06,-16.51 -1.97,-13.99 -0.64,-11.62 0.67,-9.25 1.32,-6.32 1.97,-3.39 1.93,-1.96 1.90,-0.53 1.93,-0.30 1.97,-0.06 1.95,0.16 1.93,0.40 1.85,0.63 1.77,0.85 1.65,1.05 1.52,1.25 1.34,1.42 1.17,1.58 0.97,1.70 0.76,1.82 0.53,1.88 0.30,1.95 0.06,1.95 -0.17,1.96 -0.40,1.91 -0.63,1.86 -0.85,1.76 -1.06,1.66 -1.24,1.51 -1.43,1.35 -1.57,1.16 -1.71,0.97 -1.80,0.75 -1.90,0.53 -1.90,0.53 L -1.90,0.53 Z"/></g><g transform="translate(57.7265625 76.88671875) rotate(0 66.326171875 41.73046875)" stroke="none"><path fill="#000000" d="M -0.13,-1.32 Q -0.13,-1.32 1.94,-2.30 4.02,-3.28 5.72,-3.52 7.42,-3.77 8.96,-4.09 10.51,-4.41 11.98,-4.80 13.46,-5.19 15.42,-5.82 17.38,-6.44 19.34,-6.99 21.31,-7.55 23.49,-8.03 25.68,-8.50 28.05,-8.90 30.42,-9.30 33.72,-9.67 37.01,-10.05 39.98,-10.32 42.96,-10.59 45.82,-10.74 48.68,-10.89 51.38,-10.97 54.09,-11.04 56.76,-11.09 59.44,-11.13 63.00,-11.10 66.56,-11.08 69.73,-10.97 72.91,-10.85 75.93,-10.66 78.94,-10.46 81.99,-10.07 85.03,-9.68 88.11,-9.07 91.19,-8.45 95.12,-6.99 99.06,-5.52 102.36,-3.72 105.67,-1.92 108.59,0.29 111.52,2.51 114.14,5.04 116.75,7.58 119.05,10.44 121.35,13.31 123.62,17.29 125.88,21.26 127.43,24.78 128.98,28.29 130.17,31.63 131.37,34.97 132.44,39.18 133.52,43.39 134.20,47.11 134.88,50.82 135.19,54.40 135.49,57.97 135.22,61.47 134.95,64.97 133.76,68.38 132.57,71.79 130.36,74.88 128.15,77.97 123.92,81.16 119.70,84.36 115.77,86.55 111.84,88.75 108.10,90.28 104.36,91.80 99.80,92.73 95.24,93.66 91.38,93.97 87.52,94.28 83.83,93.92 80.14,93.55 76.93,92.80 73.72,92.05 71.25,91.08 68.79,90.12 67.04,88.79 65.30,87.45 65.03,84.95 64.75,82.46 64.69,82.25 64.62,82.05 64.62,81.84 64.63,81.63 64.70,81.43 64.77,81.23 64.90,81.06 65.03,80.89 65.20,80.77 65.38,80.65 65.58,80.60 65.79,80.54 66.00,80.56 66.21,80.57 66.41,80.65 66.61,80.73 66.77,80.87 66.93,81.01 67.04,81.19 67.14,81.38 67.19,81.58 67.23,81.79 67.21,82.00 67.18,82.21 67.09,82.41 67.00,82.60 66.85,82.75 66.71,82.90 66.52,83.00 66.33,83.10 66.12,83.13 65.91,83.16 65.70,83.13 65.49,83.09 65.30,82.99 65.12,82.89 64.97,82.73 64.83,82.58 64.74,82.38 64.65,82.19 64.63,81.98 64.61,81.77 64.66,81.56 64.70,81.35 64.82,81.17 64.93,80.99 65.09,80.86 65.25,80.72 65.45,80.64 65.65,80.57 65.86,80.56 66.07,80.55 66.28,80.61 66.48,80.66 66.66,80.78 66.83,80.91 66.96,81.08 67.09,81.25 67.09,81.25 67.09,81.25 68.39,81.78 69.69,82.31 70.54,83.04 71.40,83.76 73.38,84.56 75.36,85.37 78.13,86.08 80.90,86.79 83.97,87.17 87.05,87.56 90.51,87.33 93.98,87.11 97.94,86.39 101.91,85.66 105.28,84.33 108.65,82.99 112.23,81.02 115.81,79.04 119.38,76.52 122.94,74.00 124.71,71.74 126.47,69.47 127.47,66.92 128.46,64.38 128.72,61.43 128.98,58.49 128.73,55.24 128.47,51.99 127.84,48.49 127.21,44.99 126.23,41.06 125.24,37.13 124.15,34.01 123.05,30.88 121.66,27.65 120.26,24.42 118.29,20.86 116.32,17.31 114.29,14.74 112.25,12.17 109.94,9.89 107.62,7.60 105.08,5.64 102.55,3.68 99.67,2.05 96.79,0.43 93.35,-0.89 89.91,-2.23 87.05,-2.81 84.19,-3.40 81.34,-3.80 78.48,-4.20 75.57,-4.44 72.66,-4.68 69.57,-4.82 66.48,-4.96 62.99,-5.02 59.49,-5.08 56.86,-5.08 54.22,-5.07 51.59,-5.03 48.97,-4.99 46.22,-4.87 43.47,-4.74 40.56,-4.49 37.64,-4.25 34.51,-3.92 31.37,-3.59 29.13,-3.22 26.89,-2.86 24.88,-2.43 22.87,-2.01 20.99,-1.48 19.10,-0.96 17.01,-0.30 14.92,0.34 13.28,0.77 11.64,1.20 9.94,1.54 8.24,1.87 6.42,2.14 4.60,2.40 2.36,1.86 0.13,1.32 -0.02,1.31 -0.18,1.31 -0.34,1.27 -0.49,1.23 -0.63,1.15 -0.77,1.07 -0.89,0.96 -1.01,0.86 -1.09,0.72 -1.18,0.59 -1.24,0.44 -1.29,0.29 -1.31,0.13 -1.32,-0.02 -1.30,-0.18 -1.28,-0.34 -1.22,-0.49 -1.16,-0.63 -1.06,-0.76 -0.97,-0.89 -0.85,-1.00 -0.73,-1.10 -0.58,-1.17 -0.44,-1.25 -0.28,-1.28 -0.13,-1.32 -0.13,-1.32 L -0.13,-1.32 Z"/></g><g transform="translate(115.7265625 83.88671875) rotate(0 -52.86328125 66.2734375)" stroke="none"><path fill="#000000" d="M 2.07,0.02 Q 2.07,0.02 2.46,2.67 2.85,5.32 2.82,8.77 2.79,12.22 2.67,15.49 2.55,18.75 2.31,22.14 2.07,25.52 1.82,29.02 1.57,32.51 1.42,36.08 1.26,39.65 1.18,44.16 1.10,48.67 1.02,52.49 0.93,56.31 0.82,59.69 0.71,63.08 0.50,66.22 0.29,69.37 -0.11,73.10 -0.52,76.83 -1.00,79.90 -1.48,82.97 -1.98,85.64 -2.49,88.30 -3.03,90.77 -3.57,93.23 -4.16,95.59 -4.75,97.94 -5.46,100.25 -6.16,102.57 -7.24,105.47 -8.33,108.38 -9.31,110.82 -10.28,113.27 -11.30,115.49 -12.31,117.72 -13.38,119.71 -14.45,121.70 -16.29,124.00 -18.12,126.30 -20.19,128.10 -22.25,129.89 -24.64,131.27 -27.03,132.64 -29.53,133.56 -32.02,134.49 -35.26,134.95 -38.50,135.41 -41.26,135.41 -44.02,135.42 -46.76,134.98 -49.50,134.55 -52.15,133.85 -54.80,133.15 -57.34,132.29 -59.87,131.43 -62.86,130.03 -65.84,128.63 -68.29,127.17 -70.75,125.71 -73.12,123.97 -75.49,122.22 -77.86,120.30 -80.23,118.38 -82.64,116.34 -85.04,114.29 -87.92,111.57 -90.79,108.86 -93.05,106.50 -95.31,104.13 -97.17,102.01 -99.03,99.89 -100.58,97.80 -102.12,95.71 -103.57,92.50 -105.02,89.30 -105.84,86.27 -106.66,83.24 -107.09,80.37 -107.52,77.50 -107.78,74.95 -108.03,72.40 -108.30,69.52 -108.57,66.63 -108.75,64.23 -108.92,61.82 -108.99,59.58 -109.07,57.33 -108.99,55.04 -108.90,52.74 -108.55,50.44 -108.19,48.13 -107.55,45.62 -106.91,43.10 -106.25,41.14 -105.60,39.18 -104.65,37.27 -103.71,35.36 -102.57,33.55 -101.43,31.74 -100.32,30.19 -99.21,28.64 -97.66,27.37 -96.12,26.10 -96.00,25.92 -95.89,25.74 -95.72,25.61 -95.56,25.48 -95.36,25.40 -95.16,25.33 -94.95,25.32 -94.73,25.32 -94.53,25.38 -94.33,25.44 -94.15,25.57 -93.98,25.69 -93.86,25.86 -93.73,26.03 -93.67,26.24 -93.61,26.44 -93.61,26.65 -93.62,26.86 -93.69,27.06 -93.76,27.26 -93.90,27.43 -94.03,27.60 -94.21,27.71 -94.39,27.82 -94.59,27.88 -94.80,27.93 -95.01,27.91 -95.22,27.89 -95.42,27.81 -95.61,27.73 -95.77,27.58 -95.93,27.44 -96.04,27.26 -96.14,27.07 -96.18,26.86 -96.22,26.66 -96.19,26.45 -96.16,26.23 -96.07,26.04 -95.98,25.85 -95.83,25.70 -95.68,25.55 -95.49,25.46 -95.30,25.36 -95.08,25.33 -94.87,25.31 -94.67,25.35 -94.46,25.39 -94.27,25.49 -94.09,25.59 -93.94,25.75 -93.80,25.91 -93.72,26.11 -93.63,26.30 -93.62,26.51 -93.60,26.72 -93.65,26.93 -93.70,27.14 -93.70,27.14 -93.70,27.14 -93.80,29.70 -93.90,32.27 -94.87,33.73 -95.83,35.19 -96.76,36.74 -97.69,38.29 -98.41,39.81 -99.13,41.32 -99.69,43.06 -100.26,44.80 -100.83,47.01 -101.40,49.21 -101.71,51.10 -102.01,52.99 -102.09,55.05 -102.16,57.11 -102.10,59.22 -102.03,61.33 -101.86,63.66 -101.70,65.99 -101.43,68.85 -101.16,71.72 -100.92,74.11 -100.69,76.50 -100.33,78.99 -99.98,81.48 -99.33,84.00 -98.69,86.52 -97.60,89.08 -96.52,91.63 -95.16,93.48 -93.81,95.32 -92.06,97.33 -90.30,99.34 -88.16,101.58 -86.02,103.82 -83.29,106.42 -80.55,109.02 -78.22,111.02 -75.88,113.01 -73.63,114.84 -71.38,116.66 -69.28,118.22 -67.19,119.78 -65.03,121.09 -62.87,122.39 -60.25,123.65 -57.64,124.92 -55.33,125.71 -53.03,126.51 -50.70,127.14 -48.36,127.77 -46.17,128.16 -43.98,128.54 -41.68,128.56 -39.37,128.58 -36.84,128.31 -34.31,128.03 -32.33,127.35 -30.36,126.66 -28.50,125.67 -26.65,124.67 -25.02,123.33 -23.39,121.98 -21.91,120.22 -20.43,118.46 -19.47,116.67 -18.50,114.88 -17.55,112.81 -16.60,110.75 -15.65,108.36 -14.70,105.98 -13.67,103.28 -12.65,100.58 -11.99,98.43 -11.33,96.28 -10.75,94.02 -10.17,91.76 -9.63,89.39 -9.10,87.03 -8.59,84.47 -8.09,81.92 -7.61,79.00 -7.14,76.07 -6.71,72.49 -6.29,68.91 -6.06,65.87 -5.84,62.83 -5.70,59.49 -5.56,56.14 -5.44,52.33 -5.33,48.52 -5.19,43.91 -5.04,39.31 -4.81,35.67 -4.57,32.03 -4.28,28.55 -3.99,25.07 -3.73,21.78 -3.47,18.50 -3.32,15.30 -3.17,12.10 -3.07,8.68 -2.97,5.25 -2.52,2.61 -2.07,-0.02 -2.04,-0.27 -2.01,-0.51 -1.92,-0.75 -1.83,-0.98 -1.68,-1.19 -1.54,-1.39 -1.35,-1.55 -1.16,-1.72 -0.93,-1.83 -0.71,-1.95 -0.47,-2.00 -0.22,-2.06 0.02,-2.06 0.27,-2.06 0.51,-1.99 0.75,-1.93 0.97,-1.81 1.19,-1.69 1.38,-1.53 1.57,-1.36 1.71,-1.15 1.85,-0.94 1.93,-0.71 2.02,-0.47 2.05,-0.22 2.07,0.02 2.07,0.02 L 2.07,0.02 Z"/></g></svg>