<?xml version="1.0" standalone="no"?>
<!DOCTYPE svg PUBLIC "-//W3C//DTD SVG 20010904//EN"
 "http://www.w3.org/TR/2001/REC-SVG-20010904/DTD/svg10.dtd">
<svg version="1.0" xmlns="http://www.w3.org/2000/svg"
 width="654.000000pt" height="654.000000pt" viewBox="0 0 654.000000 654.000000"
 preserveAspectRatio="xMidYMid meet">
<metadata>
Created by potrace 1.14, written by Peter Selinger 2001-2017
</metadata>
<g transform="translate(0.000000,654.000000) scale(0.100000,-0.100000)"
fill="#000000" stroke="none">
<path d="M3855 6303 c-60 -2 -112 -8 -115 -13 -6 -9 -191 -40 -242 -40 -16 0
-27 -4 -24 -9 3 -5 -27 -12 -68 -16 -40 -3 -84 -12 -97 -19 -14 -7 -59 -19
-101 -26 -42 -8 -75 -17 -72 -21 2 -4 -22 -11 -53 -14 -32 -4 -67 -13 -78 -20
-11 -6 -51 -18 -90 -25 -38 -7 -74 -17 -80 -22 -5 -4 -24 -8 -41 -8 -18 0 -36
-4 -39 -10 -3 -5 -25 -15 -48 -21 -23 -6 -45 -15 -48 -20 -3 -6 -36 -15 -74
-20 -37 -6 -82 -20 -99 -30 -17 -10 -38 -19 -47 -19 -9 0 -22 -6 -28 -14 -7
-8 -27 -18 -44 -21 -18 -4 -39 -13 -47 -19 -8 -7 -34 -18 -58 -25 -40 -11
-120 -49 -146 -69 -6 -5 -42 -18 -80 -28 -42 -12 -82 -31 -105 -50 -20 -17
-47 -35 -61 -39 -14 -4 -36 -16 -49 -26 -13 -11 -32 -19 -42 -19 -10 0 -21 -5
-24 -10 -4 -6 -26 -20 -49 -31 -24 -11 -58 -35 -76 -54 -19 -19 -39 -35 -46
-35 -7 0 -26 -11 -42 -25 -17 -14 -34 -25 -39 -25 -6 0 -18 -9 -28 -20 -10
-11 -23 -20 -30 -20 -6 0 -22 -11 -35 -25 -13 -14 -27 -25 -32 -25 -14 0 -185
-140 -282 -230 -87 -81 -176 -181 -176 -198 0 -5 -9 -17 -20 -27 -11 -10 -20
-23 -20 -28 0 -5 -20 -32 -45 -58 -25 -26 -45 -55 -45 -62 0 -8 -7 -21 -16
-28 -9 -8 -25 -32 -34 -54 -9 -22 -25 -46 -34 -54 -9 -7 -16 -21 -16 -30 0
-10 -13 -30 -30 -46 -16 -16 -30 -36 -30 -45 0 -20 -36 -96 -49 -104 -5 -4
-12 -19 -16 -35 -3 -16 -13 -35 -21 -42 -8 -6 -14 -19 -14 -29 0 -9 -9 -25
-20 -35 -11 -10 -23 -34 -26 -54 -4 -20 -11 -42 -17 -49 -6 -8 -19 -37 -29
-64 -10 -28 -24 -58 -32 -67 -7 -9 -17 -38 -21 -65 -4 -27 -15 -65 -26 -85
-10 -20 -22 -51 -25 -71 -4 -19 -12 -42 -19 -50 -7 -8 -18 -41 -25 -72 -6 -32
-15 -60 -20 -63 -4 -2 -11 -26 -15 -52 -4 -27 -10 -52 -15 -58 -4 -5 -10 -37
-14 -69 -4 -33 -10 -64 -15 -70 -5 -6 -11 -56 -15 -110 -4 -55 -11 -105 -16
-111 -5 -6 -13 -82 -16 -169 -7 -150 -2 -227 27 -436 5 -41 15 -117 21 -167 6
-51 14 -93 18 -93 4 0 13 -28 20 -63 6 -34 16 -71 20 -82 5 -11 16 -64 26
-117 9 -54 20 -98 25 -98 5 0 9 -5 9 -10 0 -6 9 -29 19 -53 11 -23 27 -68 37
-99 10 -32 21 -58 25 -58 4 0 10 -15 13 -34 4 -19 15 -45 24 -57 10 -13 24
-40 32 -59 7 -19 22 -44 32 -56 10 -11 18 -25 18 -31 0 -6 6 -16 14 -22 8 -7
18 -25 21 -41 3 -16 13 -34 21 -41 8 -7 31 -42 51 -78 26 -47 71 -101 161
-189 68 -68 127 -121 129 -118 3 3 24 -10 47 -29 23 -18 53 -36 68 -40 15 -4
34 -15 44 -26 9 -10 23 -19 30 -19 13 0 98 -42 118 -59 6 -5 38 -17 71 -26 33
-10 62 -21 65 -26 3 -4 32 -15 64 -23 32 -9 63 -20 70 -25 6 -4 32 -12 59 -15
26 -4 47 -11 47 -17 0 -5 16 -9 36 -9 19 0 44 -4 54 -10 10 -5 49 -14 86 -19
37 -6 70 -15 74 -21 4 -6 82 -17 181 -26 96 -8 182 -19 191 -24 41 -23 426 -6
693 30 116 16 302 58 365 83 8 3 36 8 63 12 26 3 47 10 47 15 0 5 25 14 55 20
30 6 67 17 82 25 16 7 63 18 106 24 49 7 88 18 103 30 14 11 42 22 64 26 22 4
40 10 40 15 0 4 32 14 70 21 39 7 75 18 81 26 6 7 18 13 25 13 8 0 33 9 57 19
23 11 62 25 87 32 25 7 52 18 60 24 8 6 35 18 60 25 25 8 56 20 70 27 14 7 32
13 40 13 8 0 29 9 45 20 33 22 68 39 130 63 22 9 60 27 85 41 62 36 129 66
145 66 8 0 17 5 20 10 4 6 21 17 38 25 52 24 95 53 160 105 34 28 80 59 102
70 22 10 90 64 150 119 61 56 147 133 193 172 46 39 86 79 89 88 4 9 53 65
110 124 57 60 107 116 111 127 4 10 45 61 92 115 47 53 92 109 100 124 9 15
30 46 48 68 18 23 32 45 32 50 0 5 16 24 35 43 19 19 42 55 51 83 9 27 29 69
45 92 16 24 29 47 29 52 0 10 22 62 42 98 6 10 17 46 25 79 7 33 18 65 24 72
6 7 15 43 20 80 5 38 14 71 20 75 6 3 15 39 21 80 6 41 14 76 19 79 7 5 29
147 29 190 0 13 1 13 10 0 13 -19 12 489 -1 695 -23 380 -27 417 -38 425 -7 4
-15 33 -18 66 -3 32 -12 69 -19 81 -8 12 -14 28 -14 36 0 7 -9 30 -19 50 -11
21 -28 61 -38 90 -10 29 -21 54 -24 57 -3 3 -10 16 -14 30 -4 14 -18 38 -31
53 -13 16 -24 34 -24 41 0 7 -9 21 -20 31 -11 10 -20 26 -20 35 0 10 -17 39
-39 66 -36 47 -52 73 -85 139 -25 50 -446 465 -472 465 -6 0 -23 13 -39 30
-16 16 -31 28 -33 25 -3 -2 -28 16 -57 40 -29 25 -57 45 -62 45 -5 0 -20 12
-34 26 -13 14 -33 30 -44 35 -11 5 -27 13 -35 19 -8 5 -26 15 -40 20 -14 6
-38 19 -55 30 -45 29 -168 88 -201 96 -16 4 -38 13 -49 20 -11 7 -63 20 -115
29 -52 8 -144 24 -205 35 -60 11 -134 20 -162 20 -29 0 -53 5 -53 10 0 10
-228 11 -505 3z m525 -68 c107 -10 226 -28 308 -46 45 -11 94 -19 107 -19 13
0 26 -4 29 -9 3 -5 23 -12 43 -16 63 -11 246 -106 383 -198 41 -28 77 -53 80
-57 3 -3 48 -38 100 -77 52 -39 111 -88 130 -108 19 -20 67 -62 105 -93 39
-31 72 -60 75 -63 3 -4 48 -52 100 -108 52 -56 104 -119 116 -139 11 -20 45
-75 75 -122 79 -122 127 -210 182 -335 57 -131 85 -232 103 -380 7 -60 19
-141 25 -180 16 -93 24 -713 10 -785 -31 -169 -44 -230 -71 -347 -32 -131 -83
-293 -104 -328 -7 -11 -20 -45 -30 -76 -9 -31 -25 -65 -34 -75 -10 -11 -30
-43 -46 -73 -30 -58 -140 -225 -184 -280 -154 -192 -333 -394 -425 -480 -34
-31 -83 -79 -111 -107 -50 -50 -131 -119 -258 -219 -34 -27 -64 -53 -66 -57
-2 -5 -8 -8 -13 -8 -5 0 -41 -21 -81 -47 -40 -27 -80 -51 -88 -56 -8 -4 -55
-30 -105 -57 -49 -27 -101 -55 -115 -61 -222 -103 -276 -127 -435 -188 -238
-92 -270 -104 -339 -123 -39 -10 -81 -25 -95 -33 -30 -16 -110 -40 -163 -49
-20 -4 -85 -22 -145 -42 -99 -32 -212 -64 -353 -99 -30 -7 -93 -18 -140 -24
-47 -6 -96 -13 -110 -15 -27 -5 -209 -14 -423 -21 -141 -5 -301 6 -432 30
-149 28 -464 107 -498 126 -10 6 -49 19 -85 31 -82 25 -338 156 -407 208 -27
21 -68 55 -90 77 -22 21 -56 50 -75 63 -58 41 -71 53 -91 90 -11 19 -29 51
-41 70 -32 52 -98 172 -98 178 0 15 34 -29 65 -84 41 -73 125 -188 158 -215
26 -22 44 -24 50 -6 6 17 -9 44 -58 102 -23 28 -45 57 -48 65 -4 8 -18 33 -32
55 -14 22 -40 66 -57 98 -28 48 -37 57 -58 55 -16 -2 -26 -11 -30 -28 -5 -20
-16 -3 -67 100 -85 175 -103 215 -103 231 0 8 -7 24 -15 35 -8 12 -19 39 -24
60 -5 22 -14 53 -20 69 -5 17 -15 57 -21 90 -7 33 -16 78 -22 100 -16 64 -37
180 -60 330 -25 169 -30 479 -10 620 36 246 97 491 157 630 7 17 17 46 23 65
13 46 93 233 144 335 100 201 180 350 189 353 5 2 9 9 9 16 0 12 49 91 77 126
81 99 173 151 266 151 65 0 157 -15 254 -43 74 -21 103 -20 103 6 0 38 -278
116 -358 101 -9 -2 -38 -6 -64 -9 l-48 -6 37 54 c20 30 54 69 77 87 22 19 62
56 87 82 41 43 47 46 59 32 14 -17 26 -17 110 5 70 18 126 8 235 -44 55 -26
118 -55 140 -64 22 -8 45 -19 50 -23 6 -4 30 -12 54 -19 78 -21 151 -62 184
-103 18 -21 43 -49 56 -61 13 -11 29 -27 35 -34 53 -63 69 -65 74 -10 2 29 -3
42 -25 65 -15 16 -39 42 -53 58 -52 62 -115 102 -205 133 -88 29 -269 106
-291 123 -6 5 -38 18 -70 29 -63 22 -128 26 -209 15 l-50 -7 35 26 c110 84
252 183 305 212 17 9 32 20 35 23 14 17 106 74 195 121 55 28 107 57 115 64
14 11 59 32 160 72 25 10 65 29 89 43 24 13 78 37 120 52 42 15 118 46 169 68
51 23 101 41 112 41 11 0 34 6 52 14 51 21 225 73 308 92 41 9 95 23 120 31
25 8 65 19 90 24 25 5 77 18 115 30 39 11 90 24 115 29 25 5 77 16 115 24 39
9 85 16 103 16 18 0 52 5 75 10 83 21 195 27 397 24 113 -2 230 -6 260 -9z"/>
<path d="M3928 6202 c-19 -4 -29 -24 -20 -39 4 -6 36 -25 72 -43 86 -44 130
-80 165 -132 16 -24 39 -54 50 -68 20 -23 71 -156 92 -240 7 -27 14 -36 35
-38 16 -2 28 3 32 13 7 19 -20 134 -35 149 -5 6 -9 17 -9 25 0 20 -64 142 -92
176 -32 39 -92 96 -125 120 -49 35 -147 81 -165 77z"/>
<path d="M4248 6169 c-33 -19 -21 -39 22 -39 32 0 53 -9 93 -39 76 -56 166
-150 187 -196 44 -97 73 -310 46 -338 -9 -9 -56 -19 -122 -26 -60 -7 -113 -15
-119 -19 -5 -4 -43 -16 -82 -28 -67 -19 -73 -20 -73 -4 0 32 -52 225 -66 245
-8 11 -14 26 -14 33 0 30 -87 160 -149 222 -51 51 -82 72 -134 93 -82 33 -107
34 -107 7 0 -11 4 -20 8 -20 5 0 38 -19 73 -42 35 -24 76 -50 90 -58 66 -37
172 -226 208 -369 34 -136 28 -153 -54 -167 -26 -4 -112 -33 -150 -49 -16 -7
-57 -21 -90 -30 -33 -10 -78 -28 -100 -40 -22 -12 -55 -25 -72 -29 -31 -5 -33
-4 -34 27 -6 139 -6 136 -49 277 -21 66 -42 111 -70 148 -22 29 -40 56 -40 60
-1 22 -184 171 -232 188 -54 19 -113 18 -133 -2 -25 -25 -12 -39 33 -36 29 2
54 -5 92 -25 54 -29 220 -183 220 -204 0 -7 6 -20 14 -28 36 -41 98 -282 100
-389 l1 -53 -55 -29 c-88 -47 -364 -180 -373 -180 -4 0 -7 19 -7 43 0 114 -81
297 -187 424 -43 51 -162 132 -245 166 -84 35 -168 28 -176 -15 -3 -14 6 -16
60 -15 61 2 66 0 171 -65 59 -37 119 -81 133 -98 87 -103 170 -281 181 -385 3
-33 10 -66 16 -73 5 -7 8 -14 6 -15 -2 -2 -24 -16 -49 -32 -25 -17 -49 -33
-55 -38 -10 -8 -50 -33 -165 -103 -180 -111 -190 -115 -190 -76 -1 64 -88 256
-142 312 -64 66 -143 135 -201 174 -56 39 -59 40 -141 38 -62 0 -96 -6 -130
-21 -24 -12 -50 -21 -55 -21 -15 0 -14 -37 2 -43 6 -2 30 2 52 10 22 8 74 15
116 16 73 2 79 0 125 -33 113 -80 217 -204 254 -302 11 -29 24 -60 29 -68 5
-9 12 -31 16 -50 4 -19 14 -46 22 -59 18 -28 30 -13 -117 -136 -40 -33 -85
-71 -100 -85 -15 -14 -51 -45 -80 -70 -160 -137 -299 -275 -430 -425 -168
-194 -191 -225 -246 -330 -15 -27 -37 -64 -50 -81 -13 -17 -24 -34 -24 -39 0
-4 -13 -24 -29 -44 -39 -50 -52 -77 -45 -95 7 -17 29 -27 46 -20 12 4 82 110
83 123 1 10 37 76 50 91 7 8 18 33 24 56 13 47 57 108 132 178 28 28 58 64 65
81 7 18 44 64 83 104 38 39 71 75 73 79 2 4 50 48 107 97 58 50 150 135 205
191 56 56 115 109 131 118 32 18 52 33 184 134 45 34 84 62 86 62 1 0 40 25
86 55 46 30 88 55 94 55 7 0 23 9 36 21 13 11 65 46 114 76 50 30 102 63 117
74 15 10 91 48 169 84 79 36 149 71 157 78 8 6 28 17 46 23 17 7 81 33 141 59
61 26 121 51 135 56 72 25 303 100 355 114 249 69 316 85 358 85 26 0 64 7 84
15 19 8 56 15 82 15 25 0 84 6 131 14 215 36 744 39 849 5 27 -9 36 -8 49 4
20 20 6 38 -45 60 -45 19 -305 37 -398 28 -33 -3 -75 -5 -93 -3 -29 3 -32 6
-25 25 12 33 6 90 -15 144 -44 115 -185 285 -264 317 -33 14 -37 14 -49 -1
-12 -13 -10 -18 11 -32 44 -29 152 -145 191 -205 68 -104 87 -211 43 -247 -10
-8 -51 -14 -111 -16 -53 -1 -119 -7 -147 -12 -28 -6 -67 -11 -86 -13 -40 -3
-38 -8 -60 170 -14 113 -52 206 -113 271 -41 45 -154 138 -195 160 -26 14 -81
14 -104 0z"/>
<path d="M3380 6115 c-21 -26 -6 -48 43 -64 29 -10 68 -36 100 -66 48 -45 66
-75 111 -180 7 -16 23 -51 34 -77 25 -55 45 -167 37 -201 -9 -33 17 -54 38
-32 19 18 32 94 23 132 -27 115 -43 160 -110 302 -42 91 -243 226 -276 186z"/>
<path d="M4621 6106 c-9 -11 -4 -23 27 -59 65 -75 85 -128 87 -226 1 -81 2
-86 23 -89 29 -4 42 30 42 116 0 78 -34 159 -95 230 -39 43 -64 52 -84 28z"/>
<path d="M2677 5933 c-18 -17 -3 -43 36 -67 42 -25 67 -44 156 -120 52 -44
135 -144 189 -228 40 -63 57 -75 79 -56 21 17 9 52 -38 112 -133 172 -164 209
-188 224 -14 9 -63 45 -108 79 -77 58 -110 73 -126 56z"/>
<path d="M5277 5883 c-13 -12 -7 -46 10 -65 11 -12 19 -44 22 -91 5 -57 10
-72 23 -75 27 -5 51 51 42 101 -6 42 -40 116 -59 129 -13 10 -30 10 -38 1z"/>
<path d="M3167 5763 c-15 -14 -3 -53 33 -108 11 -16 24 -40 30 -53 5 -13 21
-46 33 -75 34 -74 47 -128 45 -182 -2 -75 42 -85 63 -14 10 30 9 52 0 97 -20
90 -97 253 -147 307 -31 35 -45 41 -57 28z"/>
<path d="M3825 5710 c-10 -17 5 -49 26 -55 24 -8 26 -55 3 -90 -21 -31 -11
-57 18 -53 30 4 83 99 74 132 -9 38 -52 76 -85 76 -16 0 -33 -5 -36 -10z"/>
<path d="M2027 5673 c-24 -23 10 -71 40 -58 37 16 64 13 105 -10 102 -58 181
-95 215 -101 81 -15 268 -177 320 -277 18 -37 64 -100 76 -105 4 -2 7 -9 7
-16 0 -22 45 -37 66 -21 17 12 16 15 -17 56 -19 24 -49 64 -65 89 -91 135
-126 182 -164 216 -48 43 -187 118 -240 129 -19 4 -60 23 -92 42 -31 19 -73
41 -95 48 -40 15 -145 20 -156 8z"/>
<path d="M1758 5503 c-9 -2 -24 -16 -33 -30 -23 -35 -8 -47 46 -36 54 11 142
-13 268 -75 65 -31 89 -38 103 -31 10 5 18 14 18 19 0 18 -79 68 -159 99 -70
28 -204 64 -221 60 -3 -1 -13 -3 -22 -6z"/>
<path d="M5084 5475 c-10 -25 4 -45 30 -45 34 0 74 -36 132 -122 55 -80 88
-151 99 -213 4 -22 12 -46 18 -54 8 -9 13 -75 14 -195 2 -298 1 -276 22 -276
37 0 46 51 46 261 0 131 -4 201 -11 210 -7 8 -15 34 -19 59 -16 100 -104 264
-190 355 -29 31 -38 35 -84 35 -37 0 -53 -4 -57 -15z"/>
<path d="M5587 5453 c-15 -14 -6 -36 29 -71 50 -52 121 -199 194 -402 24 -67
33 -156 32 -305 -1 -88 -3 -173 -5 -189 -3 -36 15 -44 41 -18 22 22 49 221 39
287 -3 22 -11 80 -17 130 -6 49 -22 118 -36 155 -26 64 -34 83 -97 225 -58
133 -145 223 -180 188z"/>
<path d="M4627 5422 c-27 -30 -22 -52 12 -52 37 0 109 -38 123 -65 6 -11 22
-33 35 -49 40 -48 93 -163 113 -244 24 -102 40 -256 43 -427 l2 -140 27 -3
c23 -3 28 1 33 30 7 37 0 318 -10 418 -7 74 -42 220 -56 235 -5 5 -9 15 -9 22
0 33 -149 253 -171 253 -6 0 -29 9 -51 20 -52 25 -70 25 -91 2z"/>
<path d="M1935 5360 c3 -5 8 -10 11 -10 2 0 4 5 4 10 0 6 -5 10 -11 10 -5 0
-7 -4 -4 -10z"/>
<path d="M5853 5303 c-26 -9 -10 -71 53 -210 16 -35 47 -45 58 -18 3 8 -6 49
-20 91 -39 120 -58 148 -91 137z"/>
<path d="M4194 5286 c-28 -22 -8 -46 49 -61 58 -15 90 -44 123 -110 14 -27 29
-52 33 -55 38 -27 105 -324 115 -515 3 -66 9 -133 12 -150 7 -39 12 -99 13
-157 1 -41 4 -48 21 -48 30 0 47 38 45 105 -4 157 -17 338 -31 415 -38 222
-66 326 -102 376 -15 21 -38 60 -51 86 -24 50 -59 81 -124 111 -48 21 -77 22
-103 3z"/>
<path d="M5484 5273 c-13 -13 -13 -18 -1 -37 25 -40 76 -181 91 -254 10 -48
13 -101 10 -160 -23 -366 -25 -503 -7 -509 25 -9 40 53 48 192 20 356 20 408
4 495 -18 92 -27 123 -67 217 -27 65 -51 82 -78 56z"/>
<path d="M4547 5194 c-15 -15 -6 -46 31 -106 65 -105 84 -181 88 -346 4 -149
6 -162 29 -162 25 0 41 85 39 214 -2 115 -21 188 -79 301 -42 82 -56 101 -76
103 -14 2 -28 0 -32 -4z"/>
<path d="M5040 5175 c-6 -8 -9 -22 -6 -32 20 -65 64 -492 59 -583 -1 -30 -6
-176 -11 -325 -5 -186 -12 -277 -20 -293 -15 -26 -8 -42 17 -42 23 0 52 62 57
125 20 263 22 687 5 835 -7 58 -14 119 -16 135 -5 53 -33 166 -45 181 -16 18
-24 18 -40 -1z"/>
<path d="M3677 5122 c-24 -26 -5 -52 39 -52 47 0 69 -13 135 -79 141 -142 209
-324 250 -671 10 -91 17 -176 14 -188 -9 -36 16 -83 40 -80 17 3 20 12 23 68
4 89 -14 313 -32 385 -8 33 -19 87 -26 120 -32 158 -122 340 -199 400 -14 11
-34 28 -43 37 -10 10 -36 31 -59 48 -50 36 -116 41 -142 12z"/>
<path d="M6030 5035 c-9 -11 -10 -22 -1 -42 18 -46 38 -151 52 -270 9 -84 16
-114 28 -118 45 -17 52 69 20 262 -25 158 -59 216 -99 168z"/>
<path d="M1501 4976 c-12 -14 -1 -29 24 -31 12 -1 36 -11 90 -35 22 -10 65
-29 95 -40 103 -41 180 -91 221 -142 81 -103 169 -319 147 -362 -15 -29 14
-53 49 -40 22 7 29 17 31 43 3 32 -28 154 -50 195 -5 10 -26 49 -46 86 -20 38
-57 92 -82 120 -43 49 -152 124 -215 148 -212 78 -242 85 -264 58z"/>
<path d="M3168 4893 c-32 -20 -36 -47 -10 -58 15 -7 26 -7 72 0 45 6 190 -111
246 -200 10 -16 21 -32 24 -35 22 -21 110 -174 110 -192 0 -7 6 -25 14 -40 8
-15 17 -42 21 -60 4 -18 18 -71 32 -118 22 -74 33 -172 33 -302 0 -5 9 -8 20
-8 46 0 51 166 11 335 -6 22 -17 71 -26 109 -16 66 -23 85 -69 186 -60 134
-225 328 -311 369 -63 30 -134 36 -167 14z"/>
<path d="M3747 4803 c-11 -11 -8 -53 7 -86 17 -39 45 -153 56 -227 5 -30 13
-77 18 -105 6 -27 13 -93 17 -145 8 -126 12 -140 34 -140 26 0 33 24 32 110
-4 197 -67 524 -114 588 -10 13 -39 16 -50 5z"/>
<path d="M1027 4686 c-27 -7 -61 -23 -75 -35 -15 -12 -37 -26 -49 -32 -28 -15
-36 -35 -23 -60 15 -27 32 -24 83 15 78 60 121 72 195 55 45 -10 122 -22 247
-39 68 -9 91 -18 155 -60 25 -17 56 -36 70 -42 14 -7 37 -21 52 -31 53 -36
102 -1 61 45 -10 12 -38 30 -62 41 -24 10 -65 34 -90 52 -55 38 -106 53 -226
65 -49 5 -124 16 -165 24 -90 18 -111 18 -173 2z"/>
<path d="M4250 4685 c-7 -9 -9 -24 -6 -37 14 -46 27 -96 52 -208 23 -104 25
-136 25 -325 0 -151 -5 -235 -16 -300 -18 -97 -41 -308 -41 -365 1 -24 6 -36
18 -38 21 -4 36 56 49 193 6 55 17 126 25 159 33 133 41 550 13 684 -5 23 -13
63 -19 90 -5 26 -17 73 -27 105 -15 46 -22 57 -39 57 -12 0 -27 -7 -34 -15z"/>
<path d="M2860 4682 c-51 -4 -82 -26 -78 -56 3 -20 9 -21 93 -18 87 2 92 1
142 -30 89 -57 175 -140 224 -218 27 -41 57 -86 67 -100 30 -40 72 -155 87
-238 8 -43 18 -97 24 -122 6 -25 10 -79 11 -121 0 -110 8 -141 34 -137 26 4
33 46 31 186 -2 107 -35 274 -77 382 -60 155 -253 378 -378 437 -69 33 -107
40 -180 35z"/>
<path d="M5994 4656 c-3 -8 6 -59 21 -113 23 -87 26 -116 26 -264 0 -116 -5
-184 -16 -225 -19 -72 -19 -88 -1 -103 39 -32 71 105 82 354 5 104 -18 261
-48 321 -16 32 -56 51 -64 30z"/>
<path d="M4719 4519 c-8 -15 -8 -28 -1 -43 16 -32 36 -263 29 -331 -12 -113
-25 -180 -47 -244 -20 -58 -21 -64 -6 -79 14 -15 18 -15 31 -1 28 27 72 181
85 296 19 161 -8 402 -46 417 -25 10 -33 7 -45 -15z"/>
<path d="M3397 4493 c-20 -20 -4 -54 95 -206 15 -23 28 -49 28 -57 0 -9 7 -25
15 -36 8 -12 19 -39 24 -60 5 -22 18 -70 29 -109 34 -117 55 -292 47 -392 -7
-93 -8 -173 -6 -288 1 -38 -3 -84 -8 -101 -11 -37 -1 -57 25 -52 39 7 49 53
51 243 1 99 3 214 4 255 1 126 -18 275 -46 350 -8 19 -19 59 -25 88 -7 29 -23
75 -36 102 -13 28 -24 52 -24 55 0 15 -131 203 -145 208 -21 8 -20 8 -28 0z"/>
<path d="M5257 4486 c-11 -11 -15 -45 -15 -138 -1 -127 -20 -252 -82 -543 -38
-180 -49 -315 -27 -333 26 -22 44 22 56 138 6 58 17 128 25 155 8 28 20 84 26
125 7 41 16 85 21 98 16 41 49 322 49 412 0 71 -3 89 -16 94 -21 8 -20 8 -37
-8z"/>
<path d="M1175 4468 c-27 -11 -76 -28 -107 -38 -31 -11 -79 -30 -105 -44 -51
-25 -171 -144 -197 -195 -9 -16 -23 -34 -32 -39 -9 -5 -16 -23 -17 -43 -3 -51
26 -50 71 2 20 24 58 67 85 96 26 29 47 57 47 63 0 16 84 68 146 90 160 58
177 62 244 56 121 -10 222 -58 281 -132 13 -17 48 -57 77 -90 29 -33 63 -78
75 -99 32 -57 61 -55 65 3 3 38 -1 49 -35 86 -21 23 -52 60 -70 82 -55 67 -97
110 -130 133 -43 29 -165 68 -238 76 -33 3 -71 8 -85 10 -14 2 -47 -6 -75 -17z"/>
<path d="M5676 4365 c-3 -8 -3 -21 0 -29 6 -16 -9 -134 -33 -246 -14 -68 -25
-113 -68 -265 -40 -141 -41 -165 -10 -165 17 0 41 67 109 305 82 288 91 415
31 415 -13 0 -25 -7 -29 -15z"/>
<path d="M2485 4343 c-86 -8 -139 -24 -186 -59 -27 -20 -49 -42 -49 -50 0 -20
56 -18 107 5 72 33 167 42 258 25 101 -19 94 -17 135 -39 87 -46 208 -196 250
-310 44 -120 51 -164 48 -310 -3 -139 -3 -140 19 -143 35 -5 43 32 45 197 1
128 -2 153 -21 206 -12 33 -26 74 -30 90 -13 49 -46 106 -100 174 -28 35 -51
66 -51 70 0 6 -85 65 -130 89 -63 35 -212 62 -295 55z"/>
<path d="M6207 4236 c-3 -8 -2 -30 4 -48 17 -60 11 -255 -11 -393 -32 -195
-34 -212 -21 -219 16 -10 60 95 77 184 37 189 42 365 13 453 -9 28 -18 37 -35
37 -12 0 -24 -6 -27 -14z"/>
<path d="M1215 4225 c-22 -8 -52 -14 -66 -14 -45 -2 -222 -102 -306 -174 -77
-67 -129 -130 -149 -184 -10 -26 -42 -95 -70 -153 -78 -158 -143 -371 -122
-402 16 -24 52 36 88 145 18 56 57 149 86 207 29 58 65 134 81 170 24 53 45
78 109 135 87 78 149 121 188 131 14 3 30 12 37 20 6 8 18 14 25 14 8 0 22 4
32 9 75 40 248 54 313 27 44 -19 112 -86 148 -145 5 -7 6 -22 4 -32 -4 -13 2
-21 20 -28 13 -5 27 -17 30 -25 8 -20 41 -21 57 -1 19 23 3 67 -45 118 -24 26
-46 55 -49 65 -8 25 -87 89 -138 112 -51 23 -209 26 -273 5z"/>
<path d="M5782 4151 c-10 -6 -12 -38 -8 -142 6 -144 -3 -214 -51 -403 -18 -73
-22 -101 -13 -110 17 -17 42 23 73 117 43 131 49 172 53 345 5 189 -5 224 -54
193z"/>
<path d="M4907 4113 c-3 -4 -8 -78 -11 -163 -4 -85 -13 -177 -20 -205 -8 -27
-19 -76 -26 -107 -6 -32 -15 -60 -20 -63 -14 -9 2 -46 19 -43 45 9 109 226
118 403 6 128 -3 179 -34 183 -12 2 -23 0 -26 -5z"/>
<path d="M2220 4095 c-139 -28 -212 -60 -313 -134 -58 -43 -66 -81 -16 -81 33
0 70 16 82 36 13 22 149 82 233 102 115 27 199 23 303 -17 90 -34 135 -69 200
-156 62 -83 96 -167 107 -265 8 -72 24 -100 47 -82 35 29 28 155 -14 256 -26
60 -115 190 -161 232 -37 34 -101 66 -168 85 -25 7 -51 17 -58 23 -21 15 -169
16 -242 1z"/>
<path d="M5439 4048 c-24 -18 -37 -72 -41 -157 -5 -127 36 -100 70 47 18 77
18 84 3 103 -13 17 -19 18 -32 7z"/>
<path d="M3123 3954 c-3 -8 10 -48 29 -87 34 -68 60 -152 88 -278 20 -92 8
-290 -28 -444 -35 -148 -60 -244 -68 -256 -10 -16 7 -49 25 -49 10 0 23 10 28
23 34 75 63 159 72 207 5 30 19 109 31 175 33 181 18 396 -35 520 -7 17 -18
48 -24 70 -16 60 -66 135 -91 135 -11 0 -23 -7 -27 -16z"/>
<path d="M1235 3930 c-50 -8 -179 -48 -225 -70 -55 -26 -80 -100 -28 -85 13 4
30 13 38 20 8 7 40 20 70 30 30 10 66 22 80 27 43 17 183 22 226 8 21 -7 56
-31 76 -53 41 -44 68 -44 68 -1 0 84 -158 148 -305 124z"/>
<path d="M2860 3890 c-12 -7 -10 -16 7 -52 43 -87 68 -211 79 -390 7 -109 -10
-288 -32 -330 -8 -15 -14 -38 -14 -50 0 -37 -48 -212 -81 -295 -16 -42 -27
-84 -24 -94 10 -30 41 -23 58 14 27 56 98 270 108 322 44 246 47 274 42 391
-3 66 -11 141 -19 168 -8 27 -14 73 -14 101 0 39 -9 73 -37 133 -39 84 -50 96
-73 82z"/>
<path d="M508 3863 c-28 -7 -56 -76 -117 -288 -11 -38 -26 -101 -33 -140 -17
-91 -14 -320 6 -415 40 -199 58 -252 79 -231 8 8 4 55 -16 179 -46 282 -46
288 -1 509 26 126 77 268 120 335 15 22 16 29 5 42 -8 9 -16 15 -20 15 -3 -1
-14 -3 -23 -6z"/>
<path d="M4090 3840 c-6 -12 -9 -72 -8 -152 3 -112 5 -133 19 -136 20 -4 39
100 39 210 0 89 -24 127 -50 78z"/>
<path d="M2140 3799 c-47 -16 -92 -29 -101 -29 -9 0 -24 -9 -35 -21 -14 -15
-16 -24 -8 -37 16 -25 61 -26 129 -2 125 44 157 51 195 39 19 -7 80 -51 135
-98 55 -48 115 -98 133 -111 17 -13 32 -29 32 -35 0 -20 48 -58 64 -52 41 16
6 83 -92 177 -128 124 -172 159 -229 180 -72 27 -122 25 -223 -11z"/>
<path d="M3912 3812 c-9 -7 -9 -18 2 -58 25 -86 39 -223 32 -308 -8 -91 -32
-230 -72 -416 -32 -152 -38 -234 -18 -251 20 -16 42 4 48 45 7 46 36 201 52
281 49 245 63 416 44 545 -20 130 -50 186 -88 162z"/>
<path d="M4523 3732 c-7 -4 -16 -63 -23 -152 -6 -80 -15 -156 -19 -170 -5 -14
-12 -43 -15 -66 -3 -22 -19 -87 -36 -145 -16 -57 -30 -110 -30 -116 0 -20 30
-15 37 5 3 9 14 35 24 58 11 22 19 44 19 48 0 4 6 22 14 39 24 53 56 165 61
210 27 243 27 248 10 273 -16 26 -23 28 -42 16z"/>
<path d="M1120 3694 c-102 -46 -150 -71 -195 -105 -64 -47 -184 -154 -202
-178 -7 -11 -31 -39 -54 -63 -23 -23 -53 -61 -67 -83 -15 -22 -31 -43 -35 -46
-5 -4 -4 -16 2 -28 13 -23 27 -20 49 11 75 104 251 280 341 341 94 63 200 109
255 109 26 1 57 -8 82 -22 45 -26 74 -22 74 10 0 15 -14 27 -54 45 -64 29
-143 33 -196 9z"/>
<path d="M1844 3555 c-17 -26 -17 -28 1 -41 10 -8 30 -14 44 -15 56 -1 118
-11 160 -25 127 -43 252 -201 286 -364 18 -85 20 -90 46 -90 17 0 19 7 19 58
-1 92 -14 137 -66 223 -104 172 -226 253 -411 274 -59 7 -62 6 -79 -20z"/>
<path d="M5323 3558 c-6 -7 -13 -60 -17 -118 -6 -94 -18 -153 -61 -300 -16
-57 -60 -174 -80 -213 -19 -38 -19 -53 0 -60 34 -14 129 190 165 354 5 24 18
78 29 119 12 41 21 98 21 125 0 73 -32 125 -57 93z"/>
<path d="M5024 3528 c-4 -13 -8 -30 -9 -38 -5 -51 -83 -340 -101 -372 -16 -30
-18 -64 -5 -73 36 -22 142 250 165 424 2 14 7 34 11 45 5 11 3 21 -6 27 -24
15 -47 10 -55 -13z"/>
<path d="M6292 3537 c-6 -7 -16 -35 -22 -62 -6 -28 -16 -59 -21 -70 -13 -29
-38 -158 -33 -167 12 -19 32 -5 52 35 33 66 75 237 65 264 -6 17 -27 17 -41 0z"/>
<path d="M3443 3504 c-3 -8 -2 -45 2 -82 5 -37 9 -94 10 -127 3 -96 -23 -386
-39 -435 -8 -25 -17 -65 -21 -90 -8 -50 -59 -207 -81 -248 -18 -35 -18 -48 1
-56 25 -9 45 5 61 43 32 74 64 178 70 226 4 28 12 59 18 70 6 11 11 28 12 38
1 9 8 45 15 80 20 88 20 557 0 580 -17 21 -40 22 -48 1z"/>
<path d="M5501 3421 c-6 -10 -15 -48 -21 -86 -6 -37 -19 -92 -30 -123 -21 -64
-30 -154 -15 -162 30 -15 114 235 115 343 0 40 -3 47 -20 47 -10 0 -24 -8 -29
-19z"/>
<path d="M5951 3387 c-6 -8 -18 -65 -26 -127 -9 -63 -20 -121 -25 -130 -10
-19 -40 -135 -43 -165 -1 -11 -6 -26 -10 -32 -4 -7 -15 -54 -23 -104 -8 -50
-19 -99 -24 -109 -6 -10 -10 -29 -10 -42 0 -13 -12 -68 -26 -123 -39 -153 -39
-155 -17 -155 29 0 72 98 100 230 8 36 18 83 23 105 29 133 34 176 22 195 -9
15 -7 27 13 63 29 51 67 165 60 177 -3 5 -1 11 4 14 8 5 17 59 27 151 6 57
-17 84 -45 52z"/>
<path d="M5753 3378 c-5 -7 -15 -44 -21 -83 -7 -38 -17 -97 -23 -130 -27 -143
-22 -173 20 -119 24 30 33 61 57 194 20 109 20 130 2 141 -18 12 -24 11 -35
-3z"/>
<path d="M4285 3219 c-9 -39 -27 -98 -41 -131 -28 -67 -25 -101 9 -96 15 2 32
21 52 58 25 47 30 69 33 148 4 87 3 92 -16 92 -17 0 -23 -12 -37 -71z"/>
<path d="M4639 3278 c-1 -2 -7 -39 -15 -83 -7 -44 -18 -100 -22 -125 -5 -25
-15 -74 -21 -110 -7 -36 -18 -82 -24 -103 -8 -28 -7 -41 2 -50 31 -31 55 21
105 228 35 149 41 197 27 224 -9 16 -47 30 -52 19z"/>
<path d="M4122 3198 c-5 -7 -17 -42 -26 -78 -23 -92 -62 -213 -81 -250 -33
-64 17 -99 55 -37 28 45 44 94 74 230 21 92 24 122 15 133 -14 17 -24 18 -37
2z"/>
<path d="M6100 3098 c0 -23 -7 -64 -15 -92 -8 -28 -24 -87 -34 -131 -11 -44
-30 -108 -42 -141 -21 -58 -21 -94 0 -94 17 0 60 86 91 186 46 144 48 153 55
215 9 73 1 99 -31 99 -22 0 -24 -4 -24 -42z"/>
<path d="M5583 3112 c-6 -4 -14 -43 -18 -87 -3 -44 -15 -114 -26 -155 -46
-172 -47 -180 -24 -180 34 0 102 194 112 320 5 65 3 77 -14 92 -10 9 -24 14
-30 10z"/>
<path d="M2597 3103 c-12 -11 -8 -43 8 -66 27 -42 54 -138 45 -166 -25 -84
-32 -133 -21 -144 34 -34 79 67 80 182 1 62 -4 83 -30 137 -24 51 -35 64 -53
64 -12 0 -26 -3 -29 -7z"/>
<path d="M489 3078 c-28 -52 -2 -373 45 -558 28 -113 37 -135 52 -135 16 0 20
9 22 48 2 27 -4 69 -12 95 -30 94 -46 219 -49 385 -2 135 -5 170 -17 177 -22
14 -28 12 -41 -12z"/>
<path d="M1830 3064 c-35 -13 -69 -31 -133 -73 -73 -46 -97 -81 -97 -141 0
-55 50 -48 71 9 10 24 10 24 43 -25 56 -82 79 -98 142 -98 30 -1 58 4 62 9 4
6 19 16 34 24 15 8 42 32 60 55 l33 41 5 -44 c6 -55 30 -73 59 -47 60 54 -14
217 -123 273 -30 16 -130 27 -156 17z m141 -102 c24 -21 24 -54 0 -76 -18 -16
-19 -16 -25 7 -11 47 -118 65 -156 27 -11 -11 -20 -26 -20 -32 -1 -8 -7 -5
-15 6 -8 10 -12 23 -9 28 8 13 76 55 100 61 32 9 104 -3 125 -21z"/>
<path d="M930 3016 c-70 -29 -126 -64 -167 -106 -36 -37 -40 -49 -21 -68 18
-18 37 -15 70 13 37 31 55 32 63 3 13 -42 56 -96 90 -112 41 -20 97 -20 134
-1 36 18 110 101 117 132 8 29 19 22 44 -28 23 -43 38 -48 64 -20 16 18 16 22
1 57 -22 54 -71 102 -132 130 -70 32 -183 32 -263 0z m199 -57 c34 -12 40 -34
16 -65 -13 -18 -14 -18 -15 -1 0 19 -54 47 -91 47 -27 0 -79 -37 -79 -56 0 -8
-5 -14 -12 -14 -6 0 -8 3 -5 6 3 4 2 16 -4 26 -13 24 -2 38 44 55 41 15 106
16 146 2z"/>
<path d="M4726 2865 c-3 -9 -9 -42 -12 -73 -6 -60 -45 -230 -62 -272 -15 -37
-34 -149 -27 -160 21 -34 44 4 93 160 56 176 67 225 67 290 0 63 -1 65 -26 68
-17 2 -29 -3 -33 -13z"/>
<path d="M2470 2805 c-10 -12 -10 -24 0 -60 19 -67 -12 -299 -51 -381 -10 -22
-19 -45 -19 -51 0 -6 -7 -16 -15 -23 -20 -17 -19 -59 1 -67 72 -27 182 375
144 524 -17 70 -35 88 -60 58z"/>
<path d="M4123 2798 c-6 -7 -25 -67 -43 -133 -18 -66 -36 -129 -41 -140 -4
-11 -15 -47 -25 -80 -18 -65 -18 -65 -63 -172 -38 -88 -40 -113 -7 -113 14 0
30 9 38 23 43 69 109 258 133 387 7 36 17 76 22 90 19 48 24 126 9 139 -10 8
-16 8 -23 -1z"/>
<path d="M3672 2787 c-5 -7 -12 -47 -16 -91 -4 -43 -13 -95 -20 -115 -8 -20
-31 -87 -51 -150 -21 -62 -54 -148 -75 -190 -20 -42 -41 -87 -45 -101 -4 -14
-13 -32 -19 -40 -7 -8 -25 -40 -41 -70 -15 -30 -46 -82 -67 -116 -21 -34 -38
-65 -38 -70 0 -5 -12 -26 -26 -47 -32 -47 -29 -82 6 -82 21 0 32 13 70 85 25
47 63 117 85 155 63 115 132 252 148 297 9 24 25 68 38 98 36 89 37 92 63 160
29 75 48 224 33 257 -12 27 -32 36 -45 20z"/>
<path d="M4337 2793 c-4 -3 -7 -32 -7 -63 0 -31 -9 -83 -20 -116 -12 -32 -29
-85 -40 -116 -10 -31 -26 -70 -34 -87 -17 -32 -21 -71 -8 -71 58 0 210 408
168 450 -11 11 -49 14 -59 3z"/>
<path d="M5352 2763 c-5 -10 -12 -44 -16 -76 -3 -32 -10 -65 -15 -75 -6 -9
-21 -53 -35 -97 -14 -44 -32 -98 -40 -120 -15 -43 -13 -55 9 -55 18 0 59 63
73 111 6 19 19 59 30 89 30 84 52 160 52 179 0 20 -27 61 -40 61 -5 0 -13 -8
-18 -17z"/>
<path d="M2930 2745 c-6 -7 -13 -33 -15 -57 -5 -48 -50 -170 -100 -269 -19
-37 -32 -69 -29 -72 2 -2 -2 -10 -11 -17 -8 -7 -15 -18 -15 -24 0 -16 -108
-193 -150 -246 -20 -25 -46 -65 -59 -90 -13 -25 -34 -56 -46 -70 -33 -38 -95
-129 -95 -139 0 -18 30 -40 46 -34 13 5 78 94 154 213 14 21 42 64 63 94 70
105 107 163 107 169 0 4 14 28 30 54 17 26 30 55 30 64 0 10 4 19 8 21 10 4
81 152 86 178 1 3 6 19 13 35 32 85 41 128 32 160 -11 37 -32 51 -49 30z"/>
<path d="M4948 2663 c-26 -46 -32 -89 -12 -97 9 -3 22 -2 29 4 18 15 45 74 45
99 0 32 -42 28 -62 -6z"/>
<path d="M3197 2616 c-14 -11 -17 -22 -12 -49 10 -53 -37 -240 -94 -372 -5
-11 -14 -40 -21 -65 -11 -42 -78 -196 -100 -230 -32 -51 -60 -104 -60 -115 0
-7 7 -18 15 -25 19 -15 46 6 71 54 64 123 104 207 104 217 0 6 6 25 14 42 80
176 145 403 139 487 -4 66 -21 83 -56 56z"/>
<path d="M1218 2509 c-54 -57 -99 -152 -91 -193 11 -61 51 -119 98 -144 44
-23 159 -42 250 -42 92 0 135 17 203 78 44 39 44 39 43 107 0 55 -5 76 -29
119 -25 43 -34 51 -58 51 -24 0 -30 -5 -32 -28 -2 -15 6 -42 17 -61 39 -63 22
-125 -46 -168 -30 -18 -50 -21 -120 -20 -128 2 -188 18 -224 61 -25 29 -29 42
-25 70 5 34 41 95 84 143 29 31 26 62 -6 66 -17 3 -35 -8 -64 -39z"/>
<path d="M5100 2494 c-6 -14 -10 -39 -10 -57 0 -36 -26 -152 -42 -183 -14 -30
-6 -59 16 -59 24 0 68 105 91 214 14 68 14 76 -1 93 -24 25 -43 23 -54 -8z"/>
<path d="M5506 2488 c-2 -7 -12 -51 -21 -98 -9 -47 -37 -131 -61 -187 -24 -56
-44 -105 -44 -109 0 -7 -32 -79 -56 -124 -15 -30 -5 -53 22 -48 22 4 117 184
165 313 35 92 50 224 29 250 -15 18 -29 19 -34 3z"/>
<path d="M345 2470 c-32 -52 100 -570 145 -570 22 0 22 36 0 119 -13 47 -31
122 -41 166 -10 44 -22 99 -28 121 -6 23 -11 66 -12 95 -1 30 -6 60 -12 67
-12 15 -43 16 -52 2z"/>
<path d="M4833 2438 c-22 -34 -33 -62 -33 -81 0 -20 -22 -83 -56 -162 -20 -48
-55 -157 -61 -191 -3 -23 0 -33 11 -37 18 -7 41 22 56 69 5 16 21 61 35 99 82
214 100 275 89 292 -14 22 -30 27 -41 11z"/>
<path d="M3763 2388 c-11 -24 -26 -61 -33 -83 -17 -52 -48 -121 -75 -165 -12
-19 -44 -77 -71 -128 -27 -51 -55 -104 -62 -118 -15 -27 -8 -64 12 -64 32 0
39 12 157 241 62 120 119 281 119 336 0 37 -27 26 -47 -19z"/>
<path d="M1252 2367 c-45 -47 -15 -111 49 -105 49 5 58 28 31 83 -25 51 -47
57 -80 22z"/>
<path d="M1447 2352 c-25 -27 -22 -79 4 -93 24 -12 83 -6 104 11 15 13 5 49
-23 83 -20 22 -64 22 -85 -1z"/>
<path d="M2514 2237 c-34 -50 -79 -118 -100 -150 -22 -33 -46 -73 -56 -90 -21
-41 -87 -104 -113 -109 -25 -4 -31 -40 -11 -57 21 -18 66 -6 108 29 30 25 148
206 148 227 0 4 6 14 14 22 26 29 107 194 102 208 -11 28 -33 9 -92 -80z"/>
<path d="M4450 2283 c0 -23 -43 -194 -64 -256 -9 -26 -16 -64 -16 -83 0 -79
56 -14 95 111 9 28 22 70 30 95 8 25 16 68 17 95 3 50 3 50 -29 53 -26 3 -33
0 -33 -15z"/>
<path d="M597 2176 c-20 -21 -8 -81 41 -199 43 -102 104 -197 127 -197 28 0
27 40 -1 83 -31 47 -81 176 -98 255 -15 66 -39 87 -69 58z"/>
<path d="M4092 2135 c-17 -31 -34 -69 -37 -85 -4 -16 -15 -47 -26 -69 -10 -22
-19 -45 -19 -51 0 -18 -60 -140 -97 -200 -19 -30 -53 -71 -74 -91 -41 -39 -49
-66 -23 -76 26 -10 102 55 139 118 6 10 22 38 37 63 14 25 32 62 39 83 6 21
20 54 30 73 11 19 19 43 19 53 0 10 8 34 18 55 10 20 27 63 37 95 18 52 18 58
3 73 -14 14 -18 11 -46 -41z"/>
<path d="M3746 2058 c-43 -95 -96 -224 -96 -231 0 -3 -22 -54 -50 -112 -27
-58 -50 -107 -50 -109 0 -3 -65 -115 -135 -232 -22 -37 -57 -86 -77 -109 -45
-51 -58 -92 -33 -102 21 -8 93 65 140 142 118 193 207 352 230 414 7 20 20 54
28 76 9 22 25 71 37 108 11 38 32 92 45 120 31 63 32 87 4 87 -15 0 -26 -14
-43 -52z"/>
<path d="M5213 2078 c-12 -15 -32 -74 -39 -115 -15 -85 -47 -179 -95 -278 -40
-81 -30 -103 23 -53 31 29 98 150 98 176 0 5 7 23 15 38 8 16 15 38 15 49 0
11 7 44 14 73 13 46 13 58 0 88 -16 38 -17 39 -31 22z"/>
<path d="M2720 1993 c-22 -32 -66 -96 -96 -143 -82 -124 -190 -255 -248 -300
-28 -21 -103 -92 -166 -157 -77 -79 -148 -140 -213 -183 -53 -36 -97 -71 -97
-78 0 -7 11 -17 24 -24 22 -10 35 -4 128 62 57 40 164 132 238 204 74 72 153
144 175 160 62 45 242 291 327 447 13 25 14 35 5 50 -19 30 -35 23 -77 -38z"/>
<path d="M4921 2013 c-5 -21 -18 -74 -29 -118 -31 -127 -52 -198 -67 -230 -8
-16 -21 -46 -30 -65 -8 -19 -19 -43 -25 -53 -18 -31 -29 -51 -49 -92 -11 -22
-26 -48 -33 -57 -10 -14 -10 -20 0 -30 11 -11 23 -3 63 41 119 132 258 517
220 614 -15 39 -38 34 -50 -10z"/>
<path d="M3141 1930 c-42 -80 -44 -100 -14 -100 20 0 37 21 69 88 27 56 28 85
3 90 -11 2 -29 -23 -58 -78z"/>
<path d="M4236 1957 c-9 -19 -16 -47 -16 -61 0 -15 -20 -68 -45 -119 -25 -52
-45 -101 -45 -110 0 -22 33 -22 52 1 43 48 106 203 110 272 3 39 0 45 -18 48
-16 2 -25 -6 -38 -31z"/>
<path d="M1008 1932 c-29 -6 -23 -50 7 -58 23 -6 25 -11 25 -61 0 -31 4 -72
10 -92 5 -20 12 -48 14 -62 3 -15 13 -30 22 -33 23 -9 54 11 54 35 0 18 4 20
33 13 28 -6 234 -7 322 -1 22 2 30 -3 33 -18 6 -27 21 -45 41 -45 16 0 91 92
91 111 0 6 5 19 10 30 8 14 15 17 28 10 23 -12 52 4 52 29 0 21 -64 70 -92 70
-9 0 -19 4 -23 9 -3 5 -20 13 -38 16 -17 4 -40 14 -50 23 -15 13 -54 16 -225
19 -114 2 -227 4 -252 6 -25 1 -53 1 -62 -1z m145 -68 c8 -9 -34 -64 -45 -58
-10 6 -11 48 -1 57 8 9 38 9 46 1z m377 -27 c13 -9 32 -17 41 -17 29 0 42 -25
28 -52 l-13 -23 -6 25 c-3 14 -17 31 -32 37 -29 15 -201 24 -220 12 -15 -9
-38 8 -38 28 0 23 205 15 240 -10z m-286 -85 c12 17 14 17 29 0 15 -17 14 -18
-26 -20 -53 -2 -77 5 -77 23 0 11 6 11 30 -3 29 -16 32 -16 44 0z m131 8 c4
-6 15 -8 26 -5 21 7 64 -3 55 -13 -4 -3 -36 -7 -72 -8 -63 -2 -65 -1 -48 17
19 21 30 24 39 9z m132 -16 c-3 -3 -12 -4 -19 -1 -8 3 -5 6 6 6 11 1 17 -2 13
-5z"/>
<path d="M4564 1922 c-6 -4 -14 -41 -17 -82 -9 -116 -110 -374 -196 -500 -17
-25 -31 -49 -31 -54 0 -5 -8 -18 -17 -28 -13 -15 -14 -21 -4 -31 10 -9 24 0
66 48 30 33 64 78 75 100 91 169 116 220 142 290 56 154 46 300 -18 257z"/>
<path d="M2073 1692 c-6 -4 -37 -31 -70 -60 -32 -29 -83 -68 -113 -86 -61 -36
-74 -71 -34 -87 35 -12 104 30 188 116 78 80 85 92 64 113 -14 14 -19 14 -35
4z"/>
<path d="M4348 1573 c-103 -205 -143 -280 -174 -328 -38 -61 -43 -85 -15 -85
20 0 85 66 102 103 5 12 23 42 39 67 16 25 32 52 36 60 3 8 11 24 17 35 72
128 85 163 71 199 -14 36 -42 16 -76 -51z"/>
<path d="M3667 1588 c-9 -18 -18 -40 -21 -48 -3 -8 -10 -22 -15 -30 -5 -8 -23
-49 -40 -90 -52 -123 -134 -270 -203 -360 -40 -53 -43 -80 -9 -80 19 0 40 22
115 122 66 87 225 414 234 481 4 34 3 37 -20 37 -18 0 -29 -9 -41 -32z"/>
<path d="M3380 1593 c-9 -10 -26 -36 -40 -58 -13 -22 -36 -55 -52 -73 -15 -18
-28 -38 -28 -44 0 -6 -20 -45 -45 -86 -35 -58 -43 -78 -34 -88 6 -8 19 -14 29
-14 18 0 50 30 50 47 0 6 16 34 35 62 59 89 126 221 123 243 -4 28 -20 32 -38
11z"/>
<path d="M3022 1588 c-5 -7 -33 -58 -62 -113 -57 -109 -81 -141 -185 -252 -74
-79 -86 -100 -63 -114 22 -15 34 -10 79 27 116 96 269 340 269 427 0 38 -17
50 -38 25z"/>
<path d="M863 1561 c-11 -17 -8 -27 20 -68 18 -26 46 -75 62 -108 19 -38 62
-93 117 -150 126 -130 148 -166 148 -241 0 -67 13 -88 52 -82 16 2 37 24 65
68 24 35 59 81 79 102 l36 38 17 -22 18 -21 69 35 c100 51 184 107 184 122 0
21 -25 37 -46 30 -11 -4 -32 -16 -47 -27 -18 -12 -48 -20 -90 -22 -95 -4 -178
-60 -248 -164 -16 -25 -29 -37 -29 -29 0 9 -7 21 -15 28 -8 7 -15 24 -15 38 0
31 -55 114 -110 167 -52 49 -115 132 -125 164 -4 13 -21 45 -39 70 -17 25 -36
55 -42 66 -15 27 -46 30 -61 6z"/>
<path d="M3956 1383 c-32 -81 -70 -163 -86 -183 -15 -19 -37 -55 -48 -80 -12
-25 -27 -53 -34 -62 -9 -13 -10 -20 -1 -29 19 -19 47 -1 83 53 19 29 38 55 41
58 26 20 119 218 149 317 11 34 11 45 0 58 -31 37 -45 19 -104 -132z"/>
<path d="M2587 1461 c-26 -33 -47 -62 -47 -65 0 -3 -27 -43 -60 -88 -112 -153
-114 -156 -100 -173 19 -22 47 -18 67 10 10 14 37 49 59 78 23 29 52 71 65 94
13 23 41 70 62 104 21 34 37 69 35 78 -7 34 -35 20 -81 -38z"/>
<path d="M1142 1472 c-23 -7 -13 -41 15 -48 37 -10 55 -28 96 -100 22 -36 39
-81 43 -112 3 -28 13 -57 21 -64 13 -10 19 -7 37 16 36 50 136 146 169 163 54
27 107 74 107 93 0 36 -38 34 -96 -7 -31 -21 -71 -48 -88 -60 -18 -11 -46 -35
-62 -52 -32 -34 -44 -39 -44 -17 0 28 -40 103 -74 138 -33 33 -96 60 -124 50z"/>
<path d="M3027 1302 c-9 -10 -23 -38 -32 -62 -29 -84 -115 -227 -205 -341 -37
-47 -43 -79 -15 -79 37 0 188 191 249 315 22 44 46 93 53 108 13 25 13 31 -1
52 -20 30 -28 31 -49 7z"/>
<path d="M1740 1050 c-33 -42 -141 -120 -165 -120 -7 0 -34 -9 -60 -20 -38
-16 -46 -24 -43 -42 10 -76 283 52 332 156 23 48 21 66 -8 66 -16 0 -35 -13
-56 -40z"/>
<path d="M2518 1053 c-18 -22 -40 -58 -74 -120 -15 -26 -46 -78 -70 -115 -49
-75 -51 -83 -28 -92 23 -9 87 60 163 175 68 103 79 132 61 154 -16 20 -34 19
-52 -2z"/>
<path d="M1850 904 c-72 -57 -136 -104 -141 -104 -6 0 -9 -12 -7 -27 4 -35 33
-41 80 -18 43 22 228 205 228 226 0 40 -34 24 -160 -77z"/>
<path d="M2112 883 c-62 -65 -111 -125 -110 -133 2 -9 16 -16 33 -18 26 -2 40
7 92 60 80 83 123 133 123 146 0 5 7 15 15 22 18 15 3 40 -24 40 -10 0 -68
-53 -129 -117z"/>
</g>
</svg>
